PathFileType	4	(X/Y/Z)	E:\Qualisys_Data\Carbon_Farble_Plate\Data\Amateur_Runner\S2\T3\S2T3V11_c3d.trc
DataRate	CameraRate	NumFrames	NumMarkers	Units	OrigDataRate	OrigDataStartFrame	OrigNumFrames
200.000000	200.000000	4	39	mm	200.000000	202	324
Frame#	Time	LSHO			RSHO			LICST			RICST			LASIS			LHEEL			RASIS			LTROC			RTROC			SACR			LTH1			LSK4			LTH2			LTH3			RHM5			LSK2			LTH4			RTH1			LTOE			RTH2			RTH3			RTH4			LLEP			RLEP			LSK1			LSK3			RSK1			LHM5			RSK2			LFT1			RSK3			RSK4			LLME			RLME			RTOE			RHEEL			RFT1			RFT2			LFT2			
		X1	Y1	Z1	X2	Y2	Z2	X3	Y3	Z3	X4	Y4	Z4	X5	Y5	Z5	X6	Y6	Z6	X7	Y7	Z7	X8	Y8	Z8	X9	Y9	Z9	X10	Y10	Z10	X11	Y11	Z11	X12	Y12	Z12	X13	Y13	Z13	X14	Y14	Z14	X15	Y15	Z15	X16	Y16	Z16	X17	Y17	Z17	X18	Y18	Z18	X19	Y19	Z19	X20	Y20	Z20	X21	Y21	Z21	X22	Y22	Z22	X23	Y23	Z23	X24	Y24	Z24	X25	Y25	Z25	X26	Y26	Z26	X27	Y27	Z27	X28	Y28	Z28	X29	Y29	Z29	X30	Y30	Z30	X31	Y31	Z31	X32	Y32	Z32	X33	Y33	Z33	X34	Y34	Z34	X35	Y35	Z35	X36	Y36	Z36	X37	Y37	Z37	X38	Y38	Z38	X39	Y39	Z39	

203	1.01	664.7879638671875	1436.04248046875	-482.5848388671875	697.9560546875	1398.147094726562	-165.9769897460938	572.0845947265625	982.6890258789062	-482.9857788085938	573.5311889648438	960.5682983398438	-179.2986297607422	628.0081176757812	931.3514404296876	-462.2382202148438	366.003173828125	325.5365600585938	-408.3402709960938	629.0883178710938	911.403564453125	-201.9902801513672	510.0084228515625	860.3727416992188	-493.20068359375	474.4730834960938	867.6588134765625	-188.0893707275391	485.5773010253906	1021.369079589844	-327.5487365722656	728.4500732421875	673.379150390625	-488.0673828125	540.9442749023438	420.1449890136719	-478.73876953125	654.016357421875	635.595703125	-499.2964477539062	770.5845947265625	581.8526611328125	-466.6371765136719	361.4310607910156	62.09900283813477	-234.3002014160156	623.78759765625	475.5227355957031	-485.8157958984375	693.683349609375	545.9443359375	-473.9391784667969	573.818359375	589.9915771484375	-181.8098602294922	516.28369140625	126.1972961425781	-434.9838256835938	496.7294616699219	601.9332885742188	-186.8145141601562	559.4976806640625	492.5852355957031	-210.4452056884766	480.9535522460938	508.2818298339844	-207.8194885253906	739.1784057617188	519.1366577148438	-472.6262512207031	501.7978515625	468.2947998046875	-204.2459716796875	667.2672119140625	410.5350646972656	-476.7320556640625	584.2853393554688	354.828125	-472.763671875	473.2755737304688	343.8035278320312	-211.9236602783203	462.5816040039062	165.8554534912109	-491.2881469726562	408.4175109863281	390.2385864257812	-200.8217468261719	352.0245056152344	299.0224609375	-379.4633483886719	413.8842468261719	262.035888671875	-227.8097229003906	351.218994140625	309.9911193847656	-217.9461669921875	417.0157470703125	289.0520935058594	-460.5455017089844	273.0107421875	140.6102294921875	-259.786376953125	425.4361572265625	55.01682281494141	-289.7542114257812	198.1087951660156	136.9334716796875	-319.683837890625	204.1135711669922	106.1969146728516	-347.0206604003906	188.8697357177734	113.8440475463867	-298.7111206054688	345.1940612792969	304.5921936035156	-431.83544921875
204	1.015	678.484619140625	1441.059814453125	-482.7552185058594	715.7721557617188	1402.885131835938	-167.2071990966797	589.3152465820312	987.6466064453124	-482.5573425292969	592.3460693359375	964.5286254882812	-179.3140411376953	645.3118286132812	936.0763549804688	-462.0179748535156	392.3466796875	314.4185485839844	-407.93701171875	647.6456909179688	914.9087524414062	-202.5497741699219	527.7147216796875	865.316650390625	-493.6999206542969	492.2203063964844	872.2818603515625	-188.0333862304688	503.3106384277344	1025.632080078125	-326.8012390136719	747.6508178710938	679.6333618164062	-486.8460998535156	563.6483764648438	416.1720886230469	-477.4031372070312	673.4884643554688	641.3392333984375	-498.9804992675781	789.9525146484375	587.9448852539062	-464.8701782226562	362.8983764648438	62.55010986328125	-233.4537200927734	644.1471557617188	475.6229248046875	-484.8533325195312	713.4559326171875	551.8302612304688	-473.8888244628906	586.3507690429688	594.1253051757812	-182.0625457763672	553.2979736328125	122.1904830932617	-433.6285095214844	509.1033630371094	607.6554565429688	-186.4021148681641	568.3399047851562	496.5469360351562	-211.3989562988281	490.3591613769531	514.3372192382812	-206.9564361572266	758.7092895507812	524.6426391601562	-470.5403442382812	509.7269897460938	473.5904846191406	-203.2951049804688	690.4353637695312	412.3300170898438	-475.083740234375	609.8245849609375	353.1598510742188	-471.675048828125	479.5042419433594	349.8702392578125	-209.673828125	497.4275207519531	159.2278137207031	-490.1956481933594	414.34130859375	396.3317565917969	-199.5578460693359	380.4362182617188	286.976806640625	-379.1886291503906	419.4356994628906	268.2279663085938	-225.8003234863281	357.1288757324219	316.5274963378906	-216.8468017578125	445.3371276855469	280.09033203125	-460.1719055175781	277.7786560058594	146.7865753173828	-258.4042053222656	426.7601013183594	54.51307678222656	-288.8250427246094	203.2416687011719	144.4925231933594	-318.5758666992188	208.7212829589844	113.8631210327148	-345.936279296875	193.2232513427734	120.9171600341797	-298.2217407226562	373.0000610351562	292.0189208984375	-431.6849975585938
205	1.02	692.7067260742188	1446.151245117188	-482.6403503417969	733.5552978515625	1407.919311523438	-168.2499694824219	606.8701171875	992.9204711914062	-482.4208984375	611.2074584960938	968.48583984375	-179.7200317382812	662.7265014648438	941.0359497070312	-462.3163452148438	418.7876586914062	302.5939636230469	-407.0939331054688	665.6729736328125	918.2644653320312	-203.1308441162109	545.5755004882812	870.2924194335938	-494.2590637207031	510.2565002441406	877.0315551757812	-187.5603942871094	521.1063232421875	1030.009765625	-325.8506469726562	766.623291015625	685.4390869140625	-485.4588623046875	586.2339477539062	412.7655639648438	-476.6788940429688	693.0313720703125	646.9904174804688	-498.448974609375	809.53466796875	594.291748046875	-461.704833984375	364.3155212402344	63.19810104370117	-232.3420104980469	664.2255249023438	475.2246704101562	-483.675048828125	733.4964599609375	557.3536376953125	-473.3410339355469	598.661865234375	598.00341796875	-181.6749267578125	589.83984375	119.1678695678711	-432.0394592285156	521.68017578125	613.2518920898438	-185.5250091552734	578.268310546875	500.6562194824219	-210.7784576416016	500.2230834960938	520.3690795898438	-205.9855499267578	777.7083129882812	530.0626831054688	-469.2840270996094	518.1788940429688	478.9632263183594	-202.3217163085938	713.0712280273438	414.50732421875	-473.7543640136719	635.123779296875	351.319580078125	-470.339599609375	485.8802490234375	355.9310913085938	-208.1864471435547	532.5665893554688	152.8437957763672	-489.0488586425781	421.2646484375	402.6358337402344	-198.3784027099609	410.4623718261719	274.3107604980469	-377.5358276367188	425.8245239257812	274.4239501953125	-223.4007720947266	363.528076171875	322.9645385742188	-215.3020782470703	474.6214904785156	271.02099609375	-459.1178588867188	283.0908203125	152.4173583984375	-257.062744140625	428.2499084472656	54.54712677001953	-287.2853088378906	209.1482849121094	152.2452697753906	-317.2743530273438	213.5588836669922	122.1811828613281	-345.1748657226562	198.1946411132812	129.3272857666016	-296.9462280273438	401.0552978515625	279.8083190917969	-430.8997802734375
206	1.025	706.8222045898438	1450.937133789062	-482.8906555175781	751.1326293945312	1412.577392578125	-169.2129974365234	624.343017578125	998.045654296875	-482.6681823730469	630.1148681640625	972.0369262695312	-180.2348175048828	679.9349365234375	945.7681884765624	-462.3314514160156	447.3129577636719	290.60400390625	-405.7953186035156	684.2069091796875	921.74609375	-203.4620666503906	563.302734375	875.3230590820312	-494.7091064453125	528.3543701171875	881.285888671875	-187.4718170166016	538.9529418945312	1034.133666992188	-325.1711730957031	785.6959838867188	690.7040405273438	-484.0477294921875	609.33740234375	408.4014282226562	-475.5356750488281	712.4464721679688	652.062744140625	-498.1793823242188	828.149169921875	599.7405395507812	-459.6448364257812	367.2568664550781	63.62462997436523	-231.3584899902344	684.2023315429688	474.7333984375	-482.9872436523438	752.6083984375	562.760986328125	-472.46728515625	610.97314453125	601.4810180664062	-181.9085540771484	626.533935546875	116.1290969848633	-431.0007019042969	534.5244140625	619.2326049804688	-184.8240509033203	587.8580932617188	504.9170837402344	-209.6400146484375	510.7638549804688	526.4351806640625	-203.9474029541016	796.5545043945312	534.9699096679688	-467.9075317382812	527.2639770507812	484.4300842285156	-201.0315551757812	735.8865356445312	415.9666442871094	-472.6927185058594	660.7734375	349.3646240234375	-469.1234130859375	492.8744201660156	361.9784240722656	-206.0646057128906	567.514892578125	146.7106628417969	-487.7062072753906	428.4795837402344	408.9584350585938	-196.7448577880859	438.5601806640625	262.0151977539062	-376.9768371582031	432.64208984375	280.5115051269531	-221.1179809570312	370.5453491210938	329.7904052734375	-213.4621734619141	503.565673828125	261.7659301757812	-458.0794067382812	289.0808715820312	157.7313537597656	-255.3623352050781	430.4428405761719	53.65411758422852	-286.0042419433594	216.0327301025391	160.6376190185547	-315.4391479492188	219.8007659912109	130.7558288574219	-343.8364868164062	203.9046936035156	137.9814605712891	-296.0241088867188	429.9193115234375	266.5003967285156	-429.1813659667969
